<?xml version="1.0" encoding="UTF-8" standalone="no"?>
<svg
   xmlns:dc="http://purl.org/dc/elements/1.1/"
   xmlns:cc="http://creativecommons.org/ns#"
   xmlns:rdf="http://www.w3.org/1999/02/22-rdf-syntax-ns#"
   xmlns:svg="http://www.w3.org/2000/svg"
   xmlns="http://www.w3.org/2000/svg"
   xml:space="preserve"
   viewBox="0 0 68.17914 34.841763"
   height="34.841763"
   width="68.179138"
   y="0px"
   x="0px"
   id="Capa_1"
   version="1.1"><metadata
     id="metadata45"><rdf:RDF><cc:Work
         rdf:about=""><dc:format>image/svg+xml</dc:format><dc:type
           rdf:resource="http://purl.org/dc/dcmitype/StillImage" /><dc:title></dc:title></cc:Work></rdf:RDF></metadata><defs
     id="defs43" /><g
     transform="translate(-356.1568,-17.529297)"
     id="g11" /><g
     transform="translate(-356.1568,-17.529297)"
     id="g13" /><g
     transform="translate(-356.1568,-17.529297)"
     id="g15" /><g
     transform="translate(-356.1568,-17.529297)"
     id="g17" /><g
     transform="translate(-356.1568,-17.529297)"
     id="g19" /><g
     transform="translate(-356.1568,-17.529297)"
     id="g21" /><g
     transform="translate(-356.1568,-17.529297)"
     id="g23" /><g
     transform="translate(-356.1568,-17.529297)"
     id="g25" /><g
     transform="translate(-356.1568,-17.529297)"
     id="g27" /><g
     transform="translate(-356.1568,-17.529297)"
     id="g29" /><g
     transform="translate(-356.1568,-17.529297)"
     id="g31" /><g
     transform="translate(-356.1568,-17.529297)"
     id="g33" /><g
     transform="translate(-356.1568,-17.529297)"
     id="g35" /><g
     transform="translate(-356.1568,-17.529297)"
     id="g37" /><g
     transform="translate(-356.1568,-17.529297)"
     id="g39" /><path
     style="fill:#f22f46;fill-opacity:1"
     id="path7-9-1-3-5"
     d="m 21.118587,0 c -1.195,0 -2.57348,0.412344 -4.02148,1.652344 -1.699,1.457 -3.69796,1.90039 -5.50196,1.90039 -2.8079995,0 -5.1425695,-1.072265 -5.1425695,-1.072265 -2.77684,0.05126 -2.98648,0.06101 -5.87110002,0.136718 -0.45365,0.01381 -0.57025,0.39536 -0.53125,0.69336 0.195,1.532 0.59895,4.905591 0.75195,7.683594 0.194,3.486 -1.95592998,12.113078 0.082,15.455078 0.0131,0.0215 0.0315,0.03564 0.0449,0.05664 l -0.0449,5.904297 c 0,0 5.74238002,1.262391 12.32616952,0.769531 0,0 -0.47219,-3.018473 4.26758,-2.001953 4.74077,1.01549 19.18363,7.655077 35.30468,0.0918 4.86666,-2.72233 9.01265,-7.091007 11.00977,-11.867187 0.27333,-0.670073 0.54678,-1.36519 0.79297,-2.072266 a 6.4372931,6.4372931 0 0 0 3.59375,-5.769531 6.4372931,6.4372931 0 0 0 -6.4375,-6.4375 6.4372931,6.4372931 0 0 0 -6.4375,6.4375 6.4372931,6.4372931 0 0 0 1.02929,3.488281 c -1.24196,2.317571 -2.46851,4.695958 -4.67968,5.910156 -4.42705,2.43097 -13.11733,4.060428 -15.1211,0.955078 -2.068,-3.205 -6.51329,-5.064781 -7.02929,-6.925781 -0.517,-1.861 -4.3418,-6.408203 -4.3418,-6.408203 l 0,-6.927734 c 0,0 -1.65497,-1.652344 -4.04297,-1.652344 z" /></svg>